<?xml version="1.0" encoding="UTF-8"?>
<svg width="45px" height="45px" viewBox="0 0 45 45" version="1.1" xmlns="http://www.w3.org/2000/svg" xmlns:xlink="http://www.w3.org/1999/xlink">
    <!-- Generator: sketchtool 52.1 (67048) - http://www.bohemiancoding.com/sketch -->
    <title>9B8D7454-5CAA-40FC-BD9E-30AD67E65B89</title>
    <desc>Created with sketchtool.</desc>
    <g id="Design" stroke="none" stroke-width="1" fill="none" fill-rule="evenodd">
        <g id="1-Home---Design-Bebas-/-Gotham" transform="translate(-1373.000000, -2699.000000)" fill="#000000" fill-rule="nonzero">
            <g id="Footer" transform="translate(19.000000, 2678.000000)">
                <g id="facebook-logo-button" transform="translate(1354.000000, 21.000000)">
                    <path d="M22.3434,0 C10.0233,0 0,10.0233 0,22.3434 C0,34.6626 10.0233,44.6868 22.3434,44.6868 C34.6626,44.6868 44.6868,34.6626 44.6868,22.3434 C44.6868,10.0233 34.6644,0 22.3434,0 Z M27.9,23.13 L24.2649,23.13 C24.2649,28.9377 24.2649,36.0864 24.2649,36.0864 L18.8784,36.0864 C18.8784,36.0864 18.8784,29.007 18.8784,23.13 L16.3179,23.13 L16.3179,18.5508 L18.8784,18.5508 L18.8784,15.5889 C18.8784,13.4676 19.8864,10.1529 24.3144,10.1529 L28.3059,10.1682 L28.3059,14.6133 C28.3059,14.6133 25.8804,14.6133 25.4088,14.6133 C24.9372,14.6133 24.2667,14.8491 24.2667,15.8607 L24.2667,18.5517 L28.3707,18.5517 L27.9,23.13 Z" id="Shape"></path>
                </g>
            </g>
        </g>
    </g>
</svg>