<?xml version="1.0" encoding="UTF-8"?>
<svg width="45px" height="45px" viewBox="0 0 45 45" version="1.1" xmlns="http://www.w3.org/2000/svg" xmlns:xlink="http://www.w3.org/1999/xlink">
    <!-- Generator: sketchtool 52.1 (67048) - http://www.bohemiancoding.com/sketch -->
    <title>91D8FF30-6775-4A8E-8527-79C43E7BAE8E</title>
    <desc>Created with sketchtool.</desc>
    <g id="Design" stroke="none" stroke-width="1" fill="none" fill-rule="evenodd">
        <g id="1-Home---Design-Bebas-/-Gotham" transform="translate(-1263.000000, -2699.000000)" fill="#000000" fill-rule="nonzero">
            <g id="Footer" transform="translate(19.000000, 2678.000000)">
                <g id="tripadvisor-logotype" transform="translate(1244.000000, 21.000000)">
                    <path d="M30.8621939,21.1545918 C29.3510204,21.1545918 28.1204082,22.3705102 28.1153571,23.8715816 C28.1098469,25.3648469 29.3464286,26.6078571 30.842449,26.6115306 C32.3421429,26.6161224 33.5741327,25.3836735 33.5732143,23.882602 C33.5722959,22.3769388 32.3563776,21.1545918 30.8621939,21.1545918 Z M30.8621939,25.2642857 C30.0880102,25.2642857 29.464898,24.6526531 29.4667347,23.8945408 C29.4676531,23.1065816 30.0719388,22.4990816 30.8534694,22.4981633 C31.6184694,22.4972449 32.2452551,23.1235714 32.2388265,23.8853571 C32.2296429,24.6453061 31.6138776,25.2642857 30.8621939,25.2642857 Z" id="Shape"></path>
                    <path d="M14.0106122,17.2258163 C10.3830612,17.1936735 7.22066327,20.2210714 7.28357143,24.0772959 C7.34280612,27.6736224 10.3068367,30.722602 14.0859184,30.6895408 C17.7809694,30.6583163 20.7514286,27.640102 20.7583163,23.9854592 C20.7638265,20.2330102 17.757551,17.2258163 14.0106122,17.2258163 Z M14.1189796,28.0561224 C11.6885204,28.1672449 9.72734694,26.229949 9.73147959,23.877551 C9.73607143,21.4939286 11.7,19.6705102 13.9215306,19.7109184 C16.2280102,19.7081633 18.100102,21.5701531 18.0936735,23.8757143 C18.0877041,26.2092857 16.2482143,27.9592347 14.1189796,28.0561224 Z" id="Shape"></path>
                    <path d="M22.442602,0 C10.0483163,0 0,10.0483163 0,22.442602 C0,34.8368878 10.0483163,44.8852041 22.442602,44.8852041 C34.8368878,44.8852041 44.8852041,34.8368878 44.8852041,22.442602 C44.8852041,10.0483163 34.8368878,0 22.442602,0 Z M35.3438265,31.1565306 C33.9736224,32.0271429 32.4587755,32.439949 30.8406122,32.4486735 C30.1610204,32.4532653 29.4837245,32.3618878 28.8202041,32.1896939 C27.2029592,31.77 25.8148469,30.9627551 24.6714796,29.7422449 C24.519949,29.5815306 24.3780612,29.4148469 24.2182653,29.2334694 C23.6139796,30.1339286 23.0193367,31.0206122 22.4095408,31.9293367 C21.8034184,31.0229082 21.2156633,30.144949 20.6311224,29.2720408 C20.5907143,29.2927041 20.5792347,29.2954592 20.5709694,29.3018878 C20.5576531,29.3133673 20.5457143,29.327602 20.5360714,29.3395408 C19.1530102,30.972398 17.4131633,31.9725 15.294949,32.3081633 C14.1157653,32.4945918 12.9489796,32.4280102 11.8033163,32.1116327 C10.1810204,31.6657653 8.80163265,30.8103061 7.68765306,29.5466327 C6.59892857,28.3123469 5.92163265,26.8778571 5.66816327,25.2472959 C5.3775,23.7264796 5.73107143,22.2589286 5.81969388,21.9035204 C6.07637755,20.8694388 6.52270408,19.9189286 7.13617347,19.045102 C7.17933673,18.9831122 7.1944898,18.8729082 7.17382653,18.7994388 C6.92357143,17.8819898 6.49331633,17.0471939 5.98821429,16.2477551 C5.86010204,16.0452551 5.70673469,15.857449 5.56484694,15.6622959 C5.56484694,15.6397959 5.56484694,15.6172959 5.56484694,15.5943367 C5.59285714,15.5980102 5.62132653,15.6035204 5.64933673,15.6035204 C7.34693878,15.6044388 9.04545918,15.6044388 10.7435204,15.6016837 C10.8179082,15.6016837 10.8996429,15.5713776 10.9634694,15.5309694 C12.1564286,14.765051 13.4279082,14.1589286 14.7632143,13.6868878 C15.7265816,13.3470918 16.7092347,13.0816837 17.7130102,12.8869898 C18.6841837,12.6996429 19.659949,12.5669388 20.6467347,12.5021939 C23.0519388,12.3166837 24.975,12.5710714 26.2538265,12.7496939 C27.1965306,12.882398 28.119949,13.1202551 29.0323469,13.399898 C30.6252551,13.8903061 32.1272449,14.5721939 33.5406122,15.4556633 C33.6384184,15.5167347 33.7702041,15.5553061 33.8859184,15.5553061 C35.544949,15.5626531 37.2044388,15.559898 38.8634694,15.5617347 C38.9970918,15.5617347 39.1307143,15.5759694 39.2634184,15.5833163 C39.2634184,15.6154592 39.2680102,15.6292347 39.2625,15.6370408 C39.1853571,15.7555102 39.1063776,15.8739796 39.0292347,15.9929082 C38.4667347,16.8557143 37.9855102,17.7598469 37.7008163,18.7576531 C37.6705102,18.8641837 37.6631633,18.9541837 37.7357143,19.0597959 C39.2138265,21.1816837 39.6840306,23.5106633 39.0668878,26.0219388 C38.5245918,28.2237245 37.2627551,29.9401531 35.3438265,31.1565306 Z" id="Shape"></path>
                    <path d="M13.8838776,21.1545918 C12.4103571,21.1573469 11.1756122,22.4012755 11.1788265,23.8803061 C11.1825,25.3772449 12.4163265,26.6083163 13.9169388,26.6119898 C15.4083673,26.6156633 16.6440306,25.3735714 16.6408163,23.8729592 C16.6362245,22.3581122 15.4120408,21.1518367 13.8838776,21.1545918 Z M13.9183163,25.2785204 C13.1271429,25.2794388 12.5173469,24.6687245 12.5173469,23.8729592 C12.5173469,23.0918878 13.1262245,22.4857653 13.9146429,22.4848469 C14.6902041,22.4839286 15.3146939,23.1038265 15.3183673,23.8784694 C15.3206633,24.6462245 14.6911224,25.2757653 13.9183163,25.2785204 Z" id="Shape"></path>
                    <path d="M30.7203061,17.2515306 C27.0381122,17.3268367 24.1562755,20.2945408 24.1232143,23.9657143 C24.1232143,27.6947449 27.1492347,30.7414286 30.864949,30.7271939 C34.594898,30.7138776 37.6066837,27.7530612 37.6039286,23.9827041 C37.6020918,20.0966327 34.4493367,17.1753061 30.7203061,17.2515306 Z M31.0233673,28.0570408 C28.6030102,28.1502551 26.6661735,26.2203061 26.6670918,23.8812245 C26.6680102,21.5145918 28.6195408,19.6705102 30.8511735,19.7109184 C33.1594898,19.7063265 35.0292857,21.5655612 35.0292857,23.8715816 C35.0288265,26.1858673 33.1911735,27.9743878 31.0233673,28.0570408 Z" id="Shape"></path>
                    <path d="M25.1320408,17.742398 C26.6234694,16.3740306 28.400051,15.6563265 30.4154082,15.5038776 C28.0235204,14.4413265 25.5016837,13.9890306 22.9054592,13.9389796 C19.9556633,13.8815816 17.0857653,14.3164286 14.344898,15.4662245 C16.3942347,15.5906633 18.1942347,16.3056122 19.715051,17.6877551 C21.2326531,19.0689796 22.1220918,20.79 22.444898,22.815 C22.7773469,20.8138776 23.642449,19.1080102 25.1320408,17.742398 Z" id="Shape"></path>
                </g>
            </g>
        </g>
    </g>
</svg>