<?xml version="1.0" encoding="UTF-8"?>
<svg width="45px" height="45px" viewBox="0 0 45 45" version="1.1" xmlns="http://www.w3.org/2000/svg" xmlns:xlink="http://www.w3.org/1999/xlink">
    <!-- Generator: sketchtool 52.1 (67048) - http://www.bohemiancoding.com/sketch -->
    <title>0079C435-9E5E-4229-93BB-A02DE72C2A68</title>
    <desc>Created with sketchtool.</desc>
    <g id="Design" stroke="none" stroke-width="1" fill="none" fill-rule="evenodd">
        <g id="1-Home---Design-Bebas-/-Gotham" transform="translate(-1318.000000, -2699.000000)" fill="#000000" fill-rule="nonzero">
            <g id="Footer" transform="translate(19.000000, 2678.000000)">
                <g id="twitter-logo-button" transform="translate(1299.000000, 21.000000)">
                    <path d="M22.3434,0 C10.0233,0 0,10.0233 0,22.3434 C0,34.6626 10.0233,44.6868 22.3434,44.6868 C34.6626,44.6868 44.6868,34.6626 44.6868,22.3434 C44.6868,10.0233 34.6644,0 22.3434,0 Z M32.3109,17.2296 C32.3208,17.451 32.3262,17.6742 32.3262,17.8974 C32.3262,24.6933 27.1548,32.5269 17.6931,32.5269 C14.7888,32.5269 12.0852,31.6782 9.81,30.2184 C10.2123,30.2661 10.6218,30.2904 11.0367,30.2904 C13.4469,30.2904 15.6636,29.4678 17.424,28.089 C15.174,28.0476 13.2741,26.5608 12.6198,24.5169 C12.933,24.5763 13.2561,24.6096 13.5864,24.6096 C14.0553,24.6096 14.5107,24.5484 14.9418,24.4305 C12.5892,23.9589 10.8171,21.8808 10.8171,19.3878 C10.8171,19.3662 10.8171,19.3437 10.818,19.323 C11.511,19.7073 12.3039,19.9395 13.1463,19.9656 C11.7675,19.0449 10.8594,17.4699 10.8594,15.6861 C10.8594,14.7429 11.1123,13.8591 11.5551,13.0995 C14.0904,16.2117 17.8812,18.2583 22.1544,18.4743 C22.0662,18.0972 22.0221,17.7057 22.0221,17.3016 C22.0221,14.4621 24.3243,12.159 27.1638,12.159 C28.6434,12.159 29.9781,12.7836 30.9177,13.7826 C32.0904,13.5522 33.1884,13.1256 34.1847,12.5343 C33.7977,13.7358 32.985,14.7429 31.9203,15.3801 C32.9616,15.2559 33.9552,14.9805 34.8741,14.571 C34.1883,15.6006 33.3162,16.5069 32.3109,17.2296 Z" id="Shape"></path>
                </g>
            </g>
        </g>
    </g>
</svg>