<?xml version="1.0" encoding="UTF-8"?>
<svg width="45px" height="45px" viewBox="0 0 45 45" version="1.1" xmlns="http://www.w3.org/2000/svg" xmlns:xlink="http://www.w3.org/1999/xlink">
    <!-- Generator: sketchtool 52.1 (67048) - http://www.bohemiancoding.com/sketch -->
    <title>4AAC7742-F437-46B6-9F6E-DA3595901611</title>
    <desc>Created with sketchtool.</desc>
    <g id="Design" stroke="none" stroke-width="1" fill="none" fill-rule="evenodd">
        <g id="1-Home---Design-Bebas-/-Gotham" transform="translate(-1208.000000, -2699.000000)" fill="#000000" fill-rule="nonzero">
            <g id="Footer" transform="translate(19.000000, 2678.000000)">
                <g id="youtube-logotype" transform="translate(1189.000000, 21.000000)">
                    <polygon id="Shape" points="11.79 24.0988776 13.5693367 24.0988776 13.5693367 33.7293367 15.2527041 33.7293367 15.2527041 24.0988776 17.065102 24.0988776 17.065102 22.5215816 11.79 22.5215816"></polygon>
                    <path d="M26.0237755,25.2762245 C25.4672449,25.2762245 24.9479082,25.5802041 24.4597959,26.1817347 L24.4597959,22.5211224 L22.9467857,22.5211224 L22.9467857,33.7293367 L24.4597959,33.7293367 L24.4597959,32.9202551 C24.9662755,33.5452041 25.4851531,33.8445918 26.0237755,33.8445918 C26.6257653,33.8445918 27.0307653,33.5277551 27.2328061,32.9060204 C27.3342857,32.5519898 27.3861735,31.9959184 27.3861735,31.2231122 L27.3861735,27.8977041 C27.3861735,27.1069898 27.3342857,26.555051 27.2328061,26.2193878 C27.0312245,25.5930612 26.6253061,25.2762245 26.0237755,25.2762245 Z M25.8722449,31.3415816 C25.8722449,32.0964796 25.6509184,32.4684184 25.2137755,32.4684184 C24.9653571,32.4684184 24.7123469,32.3494898 24.4593367,32.0960204 L24.4593367,27.0064286 C24.7123469,26.7561735 24.9653571,26.6377041 25.2137755,26.6377041 C25.6504592,26.6377041 25.8722449,27.0243367 25.8722449,27.777398 L25.8722449,31.3415816 Z" id="Shape"></path>
                    <path d="M20.1232653,31.7603571 C19.787602,32.2346939 19.4703061,32.4684184 19.1663265,32.4684184 C18.9642857,32.4684184 18.8490306,32.3494898 18.8122959,32.1143878 C18.7985204,32.0657143 18.7985204,31.8811224 18.7985204,31.5266327 L18.7985204,25.3781633 L17.285051,25.3781633 L17.285051,31.9807653 C17.285051,32.5708163 17.3360204,32.9693878 17.4186735,33.2228571 C17.5706633,33.6462245 17.9067857,33.8445918 18.3935204,33.8445918 C18.9505102,33.8445918 19.5217347,33.5084694 20.1232653,32.8187755 L20.1232653,33.7297959 L21.6376531,33.7297959 L21.6376531,25.3781633 L20.1232653,25.3781633 L20.1232653,31.7603571 Z" id="Shape"></path>
                    <path d="M21.4222959,17.6629592 C21.915,17.6629592 22.1514796,17.2721939 22.1514796,16.4915816 L22.1514796,12.9416327 C22.1514796,12.1605612 21.915,11.7716327 21.4222959,11.7716327 C20.9291327,11.7716327 20.6921939,12.1610204 20.6921939,12.9416327 L20.6921939,16.4915816 C20.6921939,17.2726531 20.9291327,17.6629592 21.4222959,17.6629592 Z" id="Shape"></path>
                    <path d="M22.442602,0 C10.0478571,0 0,10.0478571 0,22.442602 C0,34.8373469 10.0478571,44.8852041 22.442602,44.8852041 C34.8373469,44.8852041 44.8852041,34.8373469 44.8852041,22.442602 C44.8852041,10.0478571 34.8373469,0 22.442602,0 Z M24.9387245,10.4969388 L26.4636735,10.4969388 L26.4636735,16.7106122 C26.4636735,17.0692347 26.4636735,17.2552041 26.4820408,17.3052551 C26.5155612,17.5421939 26.6358673,17.6634184 26.8406633,17.6634184 C27.1464796,17.6634184 27.467449,17.4264796 27.8067857,16.947551 L27.8067857,10.4969388 L29.3358673,10.4969388 L29.3358673,18.9362755 L27.8067857,18.9362755 L27.8067857,18.0160714 C27.1979082,18.7140306 26.6175,19.052449 26.0595918,19.052449 C25.5673469,19.052449 25.227551,18.8527041 25.0741837,18.4256633 C24.9896939,18.169898 24.9387245,17.7662755 24.9387245,17.1707143 L24.9387245,10.4969388 Z M19.1631122,13.2488265 C19.1631122,12.3465306 19.3164796,11.6871429 19.6415816,11.2605612 C20.0644898,10.6833673 20.660051,10.395 21.4222959,10.395 C22.1882143,10.395 22.7833163,10.6833673 23.2062245,11.2605612 C23.5267347,11.6866837 23.680102,12.3465306 23.680102,13.2488265 L23.680102,16.2041327 C23.680102,17.1013776 23.5267347,17.7667347 23.2062245,18.1887245 C22.7833163,18.7645408 22.1882143,19.052449 21.4222959,19.052449 C20.660051,19.052449 20.0644898,18.7645408 19.6415816,18.1887245 C19.3164796,17.7667347 19.1631122,17.1009184 19.1631122,16.2041327 L19.1631122,13.2488265 Z M15.0736224,7.61142857 L16.277602,12.0586224 L17.4342857,7.61142857 L19.1493367,7.61142857 L17.1091837,14.349949 L17.1091837,18.9367347 L15.4138776,18.9367347 L15.4138776,14.349949 C15.260051,13.5371939 14.9207143,12.3465306 14.3765816,10.7669388 C14.0193367,9.71586735 13.6469388,8.66158163 13.2896939,7.61142857 L15.0736224,7.61142857 Z M34.5241837,34.4667857 C34.217449,35.7979592 33.1287245,36.7806122 31.8177551,36.9270918 C28.7122959,37.2737755 25.5710204,37.2756122 22.4412245,37.2737755 C19.3128061,37.2756122 16.1696939,37.2737755 13.0651531,36.9270918 C11.7541837,36.7806122 10.665,35.7984184 10.3591837,34.4667857 C9.9225,32.5708163 9.9225,30.5003571 9.9225,28.5479082 C9.9225,26.5954592 9.9280102,24.5254592 10.3642347,22.6290306 C10.6705102,21.297398 11.7587755,20.3147449 13.0697449,20.1687245 C16.1747449,19.8220408 19.317398,19.8202041 22.4467347,19.8220408 C25.5751531,19.8202041 28.7178061,19.8220408 31.8228061,20.1687245 C33.1337755,20.3152041 34.2229592,21.297398 34.5301531,22.6290306 C34.9654592,24.5254592 34.9627041,26.5954592 34.9627041,28.5479082 C34.9627041,30.5003571 34.9608673,32.5708163 34.5241837,34.4667857 Z" id="Shape"></path>
                    <path d="M30.8433673,25.2762245 C30.0691837,25.2762245 29.4681122,25.5604592 29.0309694,26.1321429 C28.71,26.5545918 28.5635204,27.207551 28.5635204,28.0997449 L28.5635204,31.0252041 C28.5635204,31.9128061 28.727449,32.5703571 29.0497959,32.9886735 C29.4864796,33.5589796 30.0893878,33.8441327 30.8810204,33.8441327 C31.6712755,33.8441327 32.2916327,33.5452041 32.7104082,32.9386224 C32.8940816,32.6704592 33.0134694,32.3669388 33.0639796,32.0317347 C33.0782143,31.8802041 33.0961224,31.5445408 33.0961224,31.0564286 L33.0961224,30.8364796 L31.5528061,30.8364796 C31.5528061,31.442602 31.5330612,31.7791837 31.5197449,31.8613776 C31.4334184,32.2659184 31.2157653,32.4679592 30.8433673,32.4679592 C30.3235714,32.4679592 30.0691837,32.0822449 30.0691837,31.309898 L30.0691837,29.8285714 L33.0961224,29.8285714 L33.0961224,28.0988265 C33.0961224,27.2066327 32.945051,26.5536735 32.6277551,26.1312245 C32.2048469,25.5609184 31.6028571,25.2762245 30.8433673,25.2762245 Z M31.5835714,28.5694898 L30.070102,28.5694898 L30.070102,27.7966837 C30.070102,27.0243367 30.3240306,26.6381633 30.8295918,26.6381633 C31.330102,26.6381633 31.5835714,27.0247959 31.5835714,27.7966837 L31.5835714,28.5694898 Z" id="Shape"></path>
                </g>
            </g>
        </g>
    </g>
</svg>